<svg xmlns="http://www.w3.org/2000/svg" xmlns:xlink="http://www.w3.org/1999/xlink" width="500" zoomAndPan="magnify" viewBox="0 0 375 374.999991" height="500" preserveAspectRatio="xMidYMid meet" version="1.0"><path fill="#6a4dab" d="M 365.445312 121.886719 C 362.058594 121.886719 359.3125 119.140625 359.3125 115.753906 L 359.3125 85.234375 C 359.3125 62.738281 341.011719 44.4375 318.515625 44.4375 L 56.769531 44.4375 C 34.273438 44.4375 15.972656 62.738281 15.972656 85.234375 L 15.972656 115.753906 C 15.972656 119.140625 13.226562 121.886719 9.839844 121.886719 C 6.453125 121.886719 3.707031 119.140625 3.707031 115.753906 L 3.707031 85.234375 C 3.707031 55.976562 27.511719 32.171875 56.769531 32.171875 L 318.519531 32.171875 C 347.773438 32.171875 371.582031 55.976562 371.582031 85.234375 L 371.582031 115.753906 C 371.574219 119.144531 368.828125 121.886719 365.445312 121.886719 Z M 365.445312 121.886719 " fill-opacity="1" fill-rule="nonzero"/><path fill="#6a4dab" d="M 318.519531 297.566406 L 56.769531 297.566406 C 27.511719 297.566406 3.707031 273.765625 3.707031 244.507812 C 3.707031 241.121094 6.453125 238.375 9.839844 238.375 C 13.226562 238.375 15.972656 241.121094 15.972656 244.507812 C 15.972656 267.003906 34.273438 285.304688 56.769531 285.304688 L 318.519531 285.304688 C 341.015625 285.304688 359.316406 267.003906 359.316406 244.507812 C 359.316406 241.121094 362.0625 238.375 365.449219 238.375 C 368.835938 238.375 371.582031 241.121094 371.582031 244.507812 C 371.574219 273.765625 347.773438 297.566406 318.519531 297.566406 Z M 318.519531 297.566406 " fill-opacity="1" fill-rule="nonzero"/><path fill="#000000" d="M 10.535156 181.867188 C 10.003906 181.867188 9.566406 181.699219 9.230469 181.363281 C 8.890625 181.023438 8.722656 180.59375 8.722656 180.054688 L 8.722656 132.976562 C 8.722656 132.445312 8.890625 132.007812 9.230469 131.671875 C 9.566406 131.335938 10 131.164062 10.535156 131.164062 L 30.816406 131.164062 C 34.824219 131.164062 38.316406 131.78125 41.285156 133.011719 C 44.253906 134.242188 46.570312 136.089844 48.234375 138.554688 C 49.902344 141.015625 50.730469 144.128906 50.730469 147.898438 C 50.730469 151.617188 49.898438 154.679688 48.234375 157.097656 C 46.566406 159.511719 44.253906 161.296875 41.285156 162.453125 C 38.316406 163.613281 34.824219 164.191406 30.816406 164.191406 L 22.199219 164.191406 L 22.199219 180.054688 C 22.199219 180.585938 22.015625 181.023438 21.652344 181.363281 C 21.289062 181.699219 20.84375 181.867188 20.3125 181.867188 Z M 21.980469 154.199219 L 30.457031 154.199219 C 32.53125 154.199219 34.183594 153.667969 35.414062 152.605469 C 36.648438 151.542969 37.261719 149.921875 37.261719 147.753906 C 37.261719 145.917969 36.730469 144.371094 35.667969 143.117188 C 34.605469 141.859375 32.867188 141.234375 30.457031 141.234375 L 21.980469 141.234375 Z M 21.980469 154.199219 " fill-opacity="1" fill-rule="nonzero"/><path fill="#000000" d="M 51.3125 181.867188 C 50.925781 181.867188 50.574219 181.710938 50.261719 181.394531 C 49.949219 181.082031 49.789062 180.730469 49.789062 180.34375 C 49.789062 180.101562 49.8125 179.886719 49.859375 179.691406 L 66.878906 133.195312 C 67.023438 132.664062 67.324219 132.191406 67.78125 131.785156 C 68.238281 131.375 68.878906 131.171875 69.703125 131.171875 L 80.421875 131.171875 C 81.242188 131.171875 81.882812 131.378906 82.34375 131.785156 C 82.800781 132.199219 83.105469 132.664062 83.25 133.195312 L 100.195312 179.691406 C 100.289062 179.886719 100.335938 180.105469 100.335938 180.34375 C 100.335938 180.730469 100.179688 181.078125 99.867188 181.394531 C 99.554688 181.710938 99.175781 181.867188 98.742188 181.867188 L 89.835938 181.867188 C 89.113281 181.867188 88.570312 181.683594 88.207031 181.328125 C 87.847656 180.964844 87.617188 180.636719 87.519531 180.347656 L 84.691406 172.960938 L 65.355469 172.960938 L 62.605469 180.347656 C 62.503906 180.636719 62.289062 180.964844 61.953125 181.328125 C 61.617188 181.6875 61.035156 181.867188 60.214844 181.867188 Z M 68.332031 162.53125 L 81.804688 162.53125 L 74.996094 143.410156 Z M 68.332031 162.53125 " fill-opacity="1" fill-rule="nonzero"/><path fill="#000000" d="M 107.878906 181.867188 C 107.347656 181.867188 106.910156 181.699219 106.574219 181.363281 C 106.234375 181.023438 106.066406 180.59375 106.066406 180.054688 L 106.066406 132.976562 C 106.066406 132.445312 106.234375 132.007812 106.574219 131.671875 C 106.910156 131.335938 107.34375 131.164062 107.878906 131.164062 L 115.554688 131.164062 C 116.375 131.164062 116.96875 131.347656 117.328125 131.707031 C 117.691406 132.070312 117.917969 132.347656 118.019531 132.539062 L 135.695312 160.425781 L 135.695312 132.972656 C 135.695312 132.441406 135.863281 132.003906 136.199219 131.667969 C 136.539062 131.328125 136.96875 131.160156 137.503906 131.160156 L 146.199219 131.160156 C 146.730469 131.160156 147.164062 131.328125 147.503906 131.667969 C 147.84375 132.003906 148.011719 132.441406 148.011719 132.972656 L 148.011719 180.050781 C 148.011719 180.53125 147.84375 180.953125 147.503906 181.316406 C 147.167969 181.679688 146.730469 181.859375 146.199219 181.859375 L 138.449219 181.859375 C 137.675781 181.859375 137.109375 181.664062 136.746094 181.277344 C 136.382812 180.890625 136.15625 180.625 136.054688 180.476562 L 118.378906 153.683594 L 118.378906 180.046875 C 118.378906 180.578125 118.210938 181.015625 117.875 181.351562 C 117.535156 181.6875 117.097656 181.859375 116.566406 181.859375 L 107.878906 181.859375 Z M 107.878906 181.867188 " fill-opacity="1" fill-rule="nonzero"/><path fill="#000000" d="M 194.355469 182.59375 C 189.765625 182.59375 185.84375 181.84375 182.589844 180.347656 C 179.332031 178.855469 176.792969 176.65625 174.980469 173.753906 C 173.167969 170.859375 172.171875 167.261719 171.976562 162.964844 C 171.929688 160.984375 171.90625 158.859375 171.90625 156.589844 C 171.90625 154.320312 171.933594 152.148438 171.976562 150.070312 C 172.171875 145.871094 173.183594 142.3125 175.019531 139.386719 C 176.859375 136.46875 179.414062 134.242188 182.695312 132.722656 C 185.980469 131.207031 189.867188 130.445312 194.359375 130.445312 C 197.546875 130.445312 200.492188 130.84375 203.199219 131.640625 C 205.898438 132.441406 208.265625 133.597656 210.292969 135.117188 C 212.324219 136.636719 213.902344 138.472656 215.039062 140.625 C 216.171875 142.773438 216.761719 145.195312 216.8125 147.902344 C 216.859375 148.339844 216.726562 148.695312 216.414062 148.988281 C 216.101562 149.28125 215.722656 149.425781 215.292969 149.425781 L 205.515625 149.425781 C 204.890625 149.425781 204.402344 149.292969 204.070312 149.03125 C 203.734375 148.765625 203.441406 148.269531 203.203125 147.546875 C 202.527344 144.988281 201.425781 143.234375 199.90625 142.292969 C 198.386719 141.347656 196.515625 140.878906 194.296875 140.878906 C 191.640625 140.878906 189.539062 141.617188 187.996094 143.085938 C 186.449219 144.5625 185.605469 147.007812 185.457031 150.441406 C 185.3125 154.398438 185.3125 158.453125 185.457031 162.609375 C 185.601562 166.039062 186.445312 168.488281 187.996094 169.960938 C 189.539062 171.4375 191.640625 172.171875 194.296875 172.171875 C 196.515625 172.171875 198.394531 171.691406 199.945312 170.722656 C 201.488281 169.757812 202.578125 168.015625 203.207031 165.507812 C 203.402344 164.785156 203.675781 164.292969 204.035156 164.023438 C 204.398438 163.761719 204.894531 163.625 205.519531 163.625 L 215.296875 163.625 C 215.734375 163.625 216.105469 163.769531 216.417969 164.0625 C 216.730469 164.351562 216.867188 164.714844 216.816406 165.152344 C 216.765625 167.855469 216.175781 170.28125 215.042969 172.429688 C 213.90625 174.578125 212.328125 176.410156 210.296875 177.9375 C 208.273438 179.453125 205.902344 180.617188 203.203125 181.410156 C 200.488281 182.191406 197.542969 182.59375 194.355469 182.59375 Z M 194.355469 182.59375 " fill-opacity="1" fill-rule="nonzero"/><path fill="#000000" d="M 220.863281 181.867188 C 220.476562 181.867188 220.128906 181.710938 219.808594 181.394531 C 219.492188 181.082031 219.34375 180.730469 219.34375 180.34375 C 219.34375 180.101562 219.367188 179.886719 219.414062 179.691406 L 236.433594 133.195312 C 236.578125 132.664062 236.878906 132.191406 237.335938 131.785156 C 237.792969 131.375 238.433594 131.171875 239.257812 131.171875 L 249.976562 131.171875 C 250.796875 131.171875 251.4375 131.378906 251.898438 131.785156 C 252.355469 132.199219 252.660156 132.664062 252.808594 133.195312 L 269.753906 179.691406 C 269.847656 179.886719 269.902344 180.105469 269.902344 180.34375 C 269.902344 180.730469 269.742188 181.078125 269.429688 181.394531 C 269.117188 181.714844 268.742188 181.867188 268.308594 181.867188 L 259.402344 181.867188 C 258.679688 181.867188 258.136719 181.683594 257.773438 181.328125 C 257.410156 180.96875 257.183594 180.636719 257.082031 180.347656 L 254.257812 172.960938 L 234.917969 172.960938 L 232.167969 180.347656 C 232.070312 180.636719 231.855469 180.964844 231.511719 181.328125 C 231.175781 181.6875 230.59375 181.867188 229.773438 181.867188 Z M 237.886719 162.53125 L 251.359375 162.53125 L 244.550781 143.410156 Z M 237.886719 162.53125 " fill-opacity="1" fill-rule="nonzero"/><path fill="#000000" d="M 277.429688 181.867188 C 276.898438 181.867188 276.460938 181.699219 276.125 181.363281 C 275.785156 181.023438 275.617188 180.59375 275.617188 180.054688 L 275.617188 132.976562 C 275.617188 132.445312 275.785156 132.007812 276.125 131.671875 C 276.460938 131.335938 276.894531 131.164062 277.429688 131.164062 L 297.128906 131.164062 C 303.355469 131.164062 308.273438 132.601562 311.871094 135.476562 C 315.464844 138.351562 317.269531 142.417969 317.269531 147.679688 C 317.269531 151.109375 316.433594 154.003906 314.765625 156.367188 C 313.101562 158.734375 310.917969 160.523438 308.210938 161.726562 L 318.207031 179.539062 C 318.351562 179.828125 318.421875 180.09375 318.421875 180.339844 C 318.421875 180.726562 318.261719 181.074219 317.953125 181.390625 C 317.640625 181.703125 317.261719 181.863281 316.832031 181.863281 L 307.269531 181.863281 C 306.351562 181.863281 305.679688 181.632812 305.242188 181.171875 C 304.804688 180.714844 304.492188 180.292969 304.300781 179.90625 L 296.042969 163.972656 L 288.585938 163.972656 L 288.585938 180.050781 C 288.585938 180.582031 288.417969 181.019531 288.078125 181.355469 C 287.742188 181.695312 287.304688 181.863281 286.773438 181.863281 L 277.429688 181.863281 Z M 288.585938 153.765625 L 296.988281 153.765625 C 299.261719 153.765625 300.957031 153.210938 302.09375 152.097656 C 303.226562 150.984375 303.792969 149.464844 303.792969 147.535156 C 303.792969 145.652344 303.253906 144.128906 302.164062 142.972656 C 301.078125 141.816406 299.355469 141.234375 296.988281 141.234375 L 288.585938 141.234375 Z M 288.585938 153.765625 " fill-opacity="1" fill-rule="nonzero"/><path fill="#000000" d="M 327.476562 181.867188 C 326.941406 181.867188 326.507812 181.699219 326.171875 181.363281 C 325.832031 181.023438 325.664062 180.59375 325.664062 180.054688 L 325.664062 132.976562 C 325.664062 132.445312 325.832031 132.007812 326.171875 131.671875 C 326.507812 131.335938 326.941406 131.164062 327.476562 131.164062 L 346.308594 131.164062 C 351.039062 131.164062 355.070312 131.925781 358.402344 133.445312 C 361.734375 134.964844 364.296875 137.1875 366.078125 140.105469 C 367.867188 143.03125 368.828125 146.636719 368.980469 150.9375 C 369.027344 153.0625 369.046875 154.917969 369.046875 156.511719 C 369.046875 158.105469 369.023438 159.941406 368.980469 162.019531 C 368.785156 166.507812 367.828125 170.226562 366.113281 173.167969 C 364.402344 176.113281 361.914062 178.296875 358.65625 179.722656 C 355.394531 181.148438 351.402344 181.859375 346.671875 181.859375 L 327.476562 181.859375 Z M 338.632812 171.4375 L 346.308594 171.4375 C 348.382812 171.4375 350.113281 171.109375 351.488281 170.457031 C 352.867188 169.808594 353.90625 168.78125 354.605469 167.378906 C 355.304688 165.980469 355.675781 164.148438 355.726562 161.875 C 355.820312 160.472656 355.882812 159.21875 355.910156 158.105469 C 355.9375 156.992188 355.9375 155.886719 355.910156 154.773438 C 355.882812 153.660156 355.828125 152.429688 355.726562 151.078125 C 355.628906 147.796875 354.773438 145.394531 353.15625 143.875 C 351.535156 142.355469 349.132812 141.59375 345.953125 141.59375 L 338.636719 141.59375 L 338.636719 171.4375 Z M 338.632812 171.4375 " fill-opacity="1" fill-rule="nonzero"/><path fill="#000000" d="M 9.75 226.59375 C 9.539062 226.59375 9.347656 226.511719 9.191406 226.347656 C 9.03125 226.191406 8.945312 226 8.945312 225.789062 C 8.945312 225.652344 8.960938 225.503906 8.988281 225.347656 L 18.945312 199.371094 C 19.050781 199.101562 19.199219 198.886719 19.386719 198.730469 C 19.578125 198.570312 19.855469 198.484375 20.230469 198.484375 L 22.964844 198.484375 C 23.3125 198.484375 23.582031 198.566406 23.789062 198.730469 C 23.984375 198.886719 24.140625 199.101562 24.25 199.371094 L 34.164062 225.347656 C 34.21875 225.503906 34.242188 225.652344 34.242188 225.789062 C 34.242188 226 34.164062 226.191406 34 226.347656 C 33.839844 226.507812 33.652344 226.59375 33.4375 226.59375 L 31.394531 226.59375 C 31.070312 226.59375 30.835938 226.511719 30.6875 226.347656 C 30.539062 226.191406 30.441406 226.042969 30.386719 225.90625 L 28.175781 220.207031 L 15.003906 220.207031 L 12.792969 225.90625 C 12.769531 226.042969 12.675781 226.191406 12.511719 226.347656 C 12.351562 226.507812 12.109375 226.59375 11.785156 226.59375 Z M 16.175781 216.757812 L 27.015625 216.757812 L 21.59375 202.503906 Z M 16.175781 216.757812 " fill-opacity="1" fill-rule="nonzero"/><path fill="#000000" d="M 47.496094 226.59375 C 47.203125 226.59375 46.972656 226.503906 46.816406 226.328125 C 46.65625 226.15625 46.570312 225.9375 46.570312 225.667969 L 46.570312 199.449219 C 46.570312 199.15625 46.652344 198.921875 46.816406 198.742188 C 46.972656 198.570312 47.203125 198.484375 47.496094 198.484375 L 57.691406 198.484375 C 59.675781 198.484375 61.390625 198.808594 62.851562 199.449219 C 64.3125 200.09375 65.445312 201.046875 66.242188 202.320312 C 67.046875 203.589844 67.449219 205.179688 67.449219 207.082031 C 67.449219 208.980469 67.046875 210.5625 66.242188 211.816406 C 65.4375 213.078125 64.308594 214.027344 62.851562 214.667969 C 61.390625 215.308594 59.675781 215.628906 57.691406 215.628906 L 50.589844 215.628906 L 50.589844 225.667969 C 50.589844 225.9375 50.5 226.160156 50.324219 226.328125 C 50.152344 226.503906 49.917969 226.59375 49.625 226.59375 Z M 50.546875 212.257812 L 57.496094 212.257812 C 59.476562 212.257812 60.960938 211.816406 61.953125 210.933594 C 62.941406 210.050781 63.4375 208.761719 63.4375 207.082031 C 63.4375 205.421875 62.957031 204.136719 61.992188 203.222656 C 61.03125 202.3125 59.53125 201.855469 57.496094 201.855469 L 50.546875 201.855469 Z M 50.546875 212.257812 " fill-opacity="1" fill-rule="nonzero"/><path fill="#000000" d="M 81.308594 226.59375 C 81.015625 226.59375 80.785156 226.503906 80.625 226.328125 C 80.46875 226.15625 80.382812 225.9375 80.382812 225.667969 L 80.382812 199.449219 C 80.382812 199.15625 80.460938 198.921875 80.625 198.742188 C 80.785156 198.570312 81.015625 198.484375 81.308594 198.484375 L 91.503906 198.484375 C 93.484375 198.484375 95.203125 198.808594 96.664062 199.449219 C 98.125 200.09375 99.253906 201.046875 100.054688 202.320312 C 100.859375 203.589844 101.261719 205.179688 101.261719 207.082031 C 101.261719 208.980469 100.859375 210.5625 100.054688 211.816406 C 99.25 213.078125 98.117188 214.027344 96.664062 214.667969 C 95.203125 215.308594 93.484375 215.628906 91.503906 215.628906 L 84.398438 215.628906 L 84.398438 225.667969 C 84.398438 225.9375 84.3125 226.160156 84.136719 226.328125 C 83.964844 226.503906 83.730469 226.59375 83.4375 226.59375 Z M 84.355469 212.257812 L 91.300781 212.257812 C 93.28125 212.257812 94.765625 211.816406 95.761719 210.933594 C 96.746094 210.050781 97.246094 208.761719 97.246094 207.082031 C 97.246094 205.421875 96.761719 204.136719 95.800781 203.222656 C 94.835938 202.3125 93.335938 201.855469 91.300781 201.855469 L 84.355469 201.855469 Z M 84.355469 212.257812 " fill-opacity="1" fill-rule="nonzero"/><path fill="#000000" d="M 115.113281 226.59375 C 114.820312 226.59375 114.59375 226.503906 114.433594 226.328125 C 114.273438 226.15625 114.191406 225.9375 114.191406 225.667969 L 114.191406 199.410156 C 114.191406 199.140625 114.269531 198.917969 114.433594 198.742188 C 114.59375 198.570312 114.820312 198.484375 115.113281 198.484375 L 117.242188 198.484375 C 117.511719 198.484375 117.726562 198.574219 117.882812 198.742188 C 118.042969 198.917969 118.121094 199.140625 118.121094 199.410156 L 118.121094 223.097656 L 131.492188 223.097656 C 131.785156 223.097656 132.015625 223.1875 132.171875 223.355469 C 132.332031 223.527344 132.417969 223.761719 132.417969 224.058594 L 132.417969 225.667969 C 132.417969 225.9375 132.335938 226.160156 132.171875 226.328125 C 132.015625 226.503906 131.785156 226.59375 131.492188 226.59375 Z M 115.113281 226.59375 " fill-opacity="1" fill-rule="nonzero"/><path fill="#000000" d="M 149 226.59375 C 148.730469 226.59375 148.511719 226.503906 148.335938 226.328125 C 148.160156 226.15625 148.070312 225.9375 148.070312 225.667969 L 148.070312 216.195312 L 138.394531 199.8125 C 138.371094 199.730469 138.339844 199.652344 138.316406 199.574219 C 138.289062 199.492188 138.273438 199.398438 138.273438 199.289062 C 138.273438 199.078125 138.355469 198.886719 138.519531 198.730469 C 138.675781 198.570312 138.867188 198.484375 139.078125 198.484375 L 141.167969 198.484375 C 141.414062 198.484375 141.625 198.546875 141.808594 198.664062 C 142 198.785156 142.132812 198.953125 142.210938 199.164062 L 150.042969 212.175781 L 157.871094 199.164062 C 158.007812 198.953125 158.160156 198.785156 158.332031 198.664062 C 158.507812 198.546875 158.714844 198.484375 158.953125 198.484375 L 161 198.484375 C 161.238281 198.484375 161.441406 198.566406 161.601562 198.730469 C 161.757812 198.886719 161.84375 199.078125 161.84375 199.289062 C 161.84375 199.398438 161.828125 199.492188 161.804688 199.574219 C 161.773438 199.652344 161.734375 199.730469 161.683594 199.8125 L 152.046875 216.195312 L 152.046875 225.667969 C 152.046875 225.9375 151.957031 226.160156 151.785156 226.328125 C 151.609375 226.503906 151.378906 226.59375 151.085938 226.59375 Z M 149 226.59375 " fill-opacity="1" fill-rule="nonzero"/><path fill="#000000" d="M 201.359375 226.996094 C 199.085938 226.996094 197.128906 226.597656 195.496094 225.8125 C 193.863281 225.023438 192.605469 223.800781 191.722656 222.160156 C 190.839844 220.515625 190.34375 218.445312 190.238281 215.957031 C 190.210938 214.78125 190.199219 213.648438 190.199219 212.566406 C 190.199219 211.484375 190.214844 210.351562 190.238281 209.171875 C 190.34375 206.707031 190.859375 204.652344 191.78125 203.007812 C 192.707031 201.367188 193.992188 200.128906 195.640625 199.316406 C 197.285156 198.5 199.191406 198.089844 201.359375 198.089844 C 203.554688 198.089844 205.476562 198.496094 207.121094 199.316406 C 208.761719 200.132812 210.058594 201.359375 210.992188 203.007812 C 211.929688 204.65625 212.4375 206.710938 212.515625 209.171875 C 212.570312 210.347656 212.601562 211.480469 212.601562 212.566406 C 212.601562 213.648438 212.570312 214.78125 212.515625 215.957031 C 212.4375 218.445312 211.949219 220.515625 211.050781 222.160156 C 210.152344 223.800781 208.886719 225.023438 207.257812 225.8125 C 205.628906 226.597656 203.664062 226.996094 201.359375 226.996094 Z M 201.359375 223.582031 C 203.421875 223.582031 205.097656 222.96875 206.398438 221.738281 C 207.695312 220.503906 208.394531 218.507812 208.503906 215.753906 C 208.554688 214.546875 208.585938 213.476562 208.585938 212.523438 C 208.585938 211.574219 208.554688 210.507812 208.503906 209.328125 C 208.449219 207.484375 208.109375 205.984375 207.480469 204.832031 C 206.851562 203.679688 206.011719 202.839844 204.96875 202.304688 C 203.925781 201.769531 202.722656 201.5 201.355469 201.5 C 200.039062 201.5 198.863281 201.769531 197.820312 202.304688 C 196.777344 202.839844 195.9375 203.683594 195.3125 204.832031 C 194.683594 205.984375 194.332031 207.484375 194.25 209.328125 C 194.222656 210.507812 194.210938 211.574219 194.210938 212.523438 C 194.210938 213.476562 194.226562 214.546875 194.25 215.753906 C 194.355469 218.507812 195.066406 220.503906 196.378906 221.738281 C 197.691406 222.96875 199.351562 223.582031 201.359375 223.582031 Z M 201.359375 223.582031 " fill-opacity="1" fill-rule="nonzero"/><path fill="#000000" d="M 227.417969 226.59375 C 227.125 226.59375 226.894531 226.503906 226.738281 226.328125 C 226.578125 226.15625 226.492188 225.9375 226.492188 225.667969 L 226.492188 199.449219 C 226.492188 199.15625 226.578125 198.921875 226.738281 198.742188 C 226.894531 198.570312 227.125 198.484375 227.417969 198.484375 L 229.265625 198.484375 C 229.585938 198.484375 229.824219 198.558594 229.984375 198.703125 C 230.144531 198.851562 230.242188 198.960938 230.265625 199.046875 L 243.597656 219.527344 L 243.597656 199.449219 C 243.597656 199.15625 243.675781 198.921875 243.835938 198.742188 C 243.996094 198.570312 244.222656 198.484375 244.519531 198.484375 L 246.449219 198.484375 C 246.742188 198.484375 246.972656 198.574219 247.148438 198.742188 C 247.320312 198.917969 247.410156 199.152344 247.410156 199.449219 L 247.410156 225.628906 C 247.410156 225.898438 247.320312 226.125 247.148438 226.308594 C 246.972656 226.5 246.753906 226.59375 246.488281 226.59375 L 244.554688 226.59375 C 244.261719 226.59375 244.042969 226.511719 243.894531 226.347656 C 243.746094 226.191406 243.648438 226.082031 243.59375 226.027344 L 230.300781 205.75 L 230.300781 225.664062 C 230.300781 225.933594 230.21875 226.15625 230.042969 226.324219 C 229.871094 226.5 229.632812 226.585938 229.339844 226.585938 L 227.417969 226.585938 Z M 227.417969 226.59375 " fill-opacity="1" fill-rule="nonzero"/><path fill="#000000" d="M 263.3125 226.59375 C 263.015625 226.59375 262.792969 226.503906 262.628906 226.328125 C 262.46875 226.15625 262.390625 225.9375 262.390625 225.667969 L 262.390625 199.410156 C 262.390625 199.140625 262.46875 198.917969 262.628906 198.742188 C 262.789062 198.570312 263.015625 198.484375 263.3125 198.484375 L 265.445312 198.484375 C 265.710938 198.484375 265.921875 198.574219 266.085938 198.742188 C 266.242188 198.917969 266.328125 199.140625 266.328125 199.410156 L 266.328125 223.097656 L 279.699219 223.097656 C 279.992188 223.097656 280.21875 223.1875 280.378906 223.355469 C 280.539062 223.527344 280.621094 223.761719 280.621094 224.058594 L 280.621094 225.667969 C 280.621094 225.9375 280.539062 226.160156 280.378906 226.328125 C 280.21875 226.503906 279.992188 226.59375 279.699219 226.59375 Z M 263.3125 226.59375 " fill-opacity="1" fill-rule="nonzero"/><path fill="#000000" d="M 293.949219 226.59375 C 293.648438 226.59375 293.425781 226.503906 293.261719 226.328125 C 293.105469 226.15625 293.023438 225.9375 293.023438 225.667969 L 293.023438 199.410156 C 293.023438 199.140625 293.105469 198.917969 293.261719 198.742188 C 293.421875 198.570312 293.648438 198.484375 293.949219 198.484375 L 296.078125 198.484375 C 296.347656 198.484375 296.5625 198.574219 296.738281 198.742188 C 296.910156 198.917969 297 199.140625 297 199.410156 L 297 225.667969 C 297 225.9375 296.910156 226.160156 296.738281 226.328125 C 296.5625 226.503906 296.347656 226.59375 296.078125 226.59375 Z M 293.949219 226.59375 " fill-opacity="1" fill-rule="nonzero"/><path fill="#000000" d="M 312.9375 226.59375 C 312.640625 226.59375 312.417969 226.503906 312.253906 226.328125 C 312.09375 226.15625 312.015625 225.9375 312.015625 225.667969 L 312.015625 199.449219 C 312.015625 199.15625 312.09375 198.921875 312.253906 198.742188 C 312.414062 198.570312 312.640625 198.484375 312.9375 198.484375 L 314.785156 198.484375 C 315.105469 198.484375 315.347656 198.558594 315.507812 198.703125 C 315.664062 198.851562 315.757812 198.960938 315.789062 199.046875 L 329.121094 219.527344 L 329.121094 199.449219 C 329.121094 199.15625 329.203125 198.921875 329.363281 198.742188 C 329.523438 198.570312 329.75 198.484375 330.042969 198.484375 L 331.96875 198.484375 C 332.261719 198.484375 332.5 198.574219 332.675781 198.742188 C 332.847656 198.917969 332.933594 199.152344 332.933594 199.449219 L 332.933594 225.628906 C 332.933594 225.898438 332.847656 226.125 332.675781 226.308594 C 332.5 226.5 332.277344 226.59375 332.007812 226.59375 L 330.082031 226.59375 C 329.789062 226.59375 329.566406 226.511719 329.417969 226.347656 C 329.269531 226.191406 329.167969 226.082031 329.113281 226.027344 L 315.828125 205.75 L 315.828125 225.664062 C 315.828125 225.933594 315.738281 226.15625 315.566406 226.324219 C 315.390625 226.5 315.160156 226.585938 314.867188 226.585938 L 312.9375 226.585938 Z M 312.9375 226.59375 " fill-opacity="1" fill-rule="nonzero"/><path fill="#000000" d="M 348.835938 226.59375 C 348.542969 226.59375 348.316406 226.503906 348.15625 226.328125 C 347.996094 226.15625 347.914062 225.9375 347.914062 225.667969 L 347.914062 199.449219 C 347.914062 199.15625 347.996094 198.921875 348.15625 198.742188 C 348.316406 198.570312 348.542969 198.484375 348.835938 198.484375 L 365.417969 198.484375 C 365.710938 198.484375 365.941406 198.574219 366.105469 198.742188 C 366.261719 198.917969 366.34375 199.152344 366.34375 199.449219 L 366.34375 200.972656 C 366.34375 201.265625 366.257812 201.496094 366.105469 201.652344 C 365.945312 201.8125 365.710938 201.898438 365.417969 201.898438 L 351.765625 201.898438 L 351.765625 210.691406 L 364.535156 210.691406 C 364.828125 210.691406 365.054688 210.777344 365.214844 210.953125 C 365.375 211.125 365.457031 211.359375 365.457031 211.652344 L 365.457031 213.136719 C 365.457031 213.40625 365.375 213.628906 365.214844 213.796875 C 365.054688 213.972656 364.828125 214.0625 364.535156 214.0625 L 351.765625 214.0625 L 351.765625 223.175781 L 365.738281 223.175781 C 366.03125 223.175781 366.257812 223.257812 366.417969 223.421875 C 366.574219 223.578125 366.660156 223.808594 366.660156 224.101562 L 366.660156 225.664062 C 366.660156 225.933594 366.574219 226.15625 366.417969 226.324219 C 366.257812 226.5 366.03125 226.585938 365.738281 226.585938 L 348.835938 226.585938 Z M 348.835938 226.59375 " fill-opacity="1" fill-rule="nonzero"/><path fill="#6a4dab" d="M 229.449219 322.09375 L 145.835938 322.09375 C 144.738281 322.09375 143.851562 321.207031 143.851562 320.109375 L 143.851562 304.8125 C 143.851562 303.714844 144.738281 302.824219 145.835938 302.824219 L 229.453125 302.824219 C 230.550781 302.824219 231.4375 303.714844 231.4375 304.8125 L 231.4375 320.109375 C 231.433594 321.207031 230.542969 322.09375 229.449219 322.09375 Z M 229.449219 322.09375 " fill-opacity="1" fill-rule="nonzero"/><path fill="#6a4dab" d="M 277.621094 343.007812 L 99.414062 343.007812 C 98.316406 343.007812 97.429688 342.117188 97.429688 341.019531 L 97.429688 329.332031 C 97.429688 328.234375 98.316406 327.347656 99.414062 327.347656 L 277.621094 327.347656 C 278.71875 327.347656 279.609375 328.234375 279.609375 329.332031 L 279.609375 341.019531 C 279.609375 342.117188 278.71875 343.007812 277.621094 343.007812 Z M 277.621094 343.007812 " fill-opacity="1" fill-rule="nonzero"/></svg>